<svg width="20" height="21" viewBox="0 0 20 21" fill="none" xmlns="http://www.w3.org/2000/svg">
<path d="M17.4184 10.9451C17.4996 10.7324 17.5208 10.4983 17.4794 10.2725C17.438 10.0468 17.3359 9.83938 17.1859 9.67665L12.8999 5.02189C12.8011 4.91074 12.6829 4.82209 12.5521 4.7611C12.4214 4.70011 12.2808 4.66801 12.1385 4.66667C11.9963 4.66533 11.8552 4.69477 11.7235 4.75328C11.5918 4.81179 11.4722 4.8982 11.3716 5.00746C11.271 5.11672 11.1914 5.24665 11.1375 5.38967C11.0836 5.53268 11.0565 5.68591 11.0578 5.84043C11.059 5.99494 11.0886 6.14764 11.1447 6.28962C11.2009 6.43159 11.2825 6.56 11.3848 6.66735L13.8429 9.33685H3.5715C3.28732 9.33685 3.01478 9.45945 2.81383 9.67769C2.61289 9.89592 2.5 10.1919 2.5 10.5005C2.5 10.8092 2.61289 11.1052 2.81383 11.3234C3.01478 11.5416 3.28732 11.6642 3.5715 11.6642H13.8429L11.3859 14.3326C11.2836 14.4399 11.202 14.5683 11.1458 14.7103C11.0896 14.8523 11.0601 15.005 11.0588 15.1595C11.0576 15.314 11.0847 15.4672 11.1386 15.6103C11.1925 15.7533 11.272 15.8832 11.3726 15.9925C11.4732 16.1017 11.5929 16.1881 11.7246 16.2466C11.8562 16.3051 11.9973 16.3346 12.1396 16.3332C12.2819 16.3319 12.4225 16.2998 12.5532 16.2388C12.6839 16.1778 12.8022 16.0892 12.901 15.978L17.187 11.3233C17.2863 11.2149 17.3649 11.0864 17.4184 10.9451V10.9451Z" fill="white"/>
</svg>
