<svg width="33" height="34" viewBox="0 0 33 34" fill="none" xmlns="http://www.w3.org/2000/svg">
<path d="M26.2059 9.375H6.79412C6.66499 9.375 6.53123 9.32091 6.42519 9.20825C6.3177 9.09404 6.25 8.92994 6.25 8.75C6.25 8.57006 6.3177 8.40596 6.42519 8.29175C6.53123 8.17909 6.66499 8.125 6.79412 8.125H26.2059C26.335 8.125 26.4688 8.17909 26.5748 8.29175C26.6823 8.40596 26.75 8.57006 26.75 8.75C26.75 8.92994 26.6823 9.09404 26.5748 9.20825C26.4688 9.32091 26.335 9.375 26.2059 9.375ZM26.2059 17.625H6.79412C6.66499 17.625 6.53123 17.5709 6.42519 17.4582C6.3177 17.344 6.25 17.1799 6.25 17C6.25 16.8201 6.3177 16.656 6.42519 16.5418C6.53123 16.4291 6.66499 16.375 6.79412 16.375H26.2059C26.335 16.375 26.4688 16.4291 26.5748 16.5418C26.6823 16.656 26.75 16.8201 26.75 17C26.75 17.1799 26.6823 17.344 26.5748 17.4582C26.4688 17.5709 26.335 17.625 26.2059 17.625ZM26.2059 25.875H6.79412C6.66498 25.875 6.53123 25.8209 6.42519 25.7083C6.3177 25.594 6.25 25.4299 6.25 25.25C6.25 25.0701 6.3177 24.906 6.42519 24.7917C6.53123 24.6791 6.66498 24.625 6.79412 24.625H26.2059C26.335 24.625 26.4688 24.6791 26.5748 24.7917C26.6823 24.906 26.75 25.0701 26.75 25.25C26.75 25.4299 26.6823 25.594 26.5748 25.7083C26.4688 25.8209 26.335 25.875 26.2059 25.875Z" fill="white" stroke="white" stroke-width="1.5"/>
</svg>
