<svg width="33" height="33" viewBox="0 0 33 33" fill="none" xmlns="http://www.w3.org/2000/svg">
<path d="M26.2059 8.875H6.79412C6.66499 8.875 6.53123 8.82091 6.42519 8.70825C6.3177 8.59404 6.25 8.42994 6.25 8.25C6.25 8.07006 6.3177 7.90596 6.42519 7.79175C6.53123 7.67909 6.66499 7.625 6.79412 7.625H26.2059C26.335 7.625 26.4688 7.67909 26.5748 7.79175C26.6823 7.90596 26.75 8.07006 26.75 8.25C26.75 8.42994 26.6823 8.59404 26.5748 8.70825C26.4688 8.82091 26.335 8.875 26.2059 8.875ZM26.2059 17.125H6.79412C6.66499 17.125 6.53123 17.0709 6.42519 16.9582C6.3177 16.844 6.25 16.6799 6.25 16.5C6.25 16.3201 6.3177 16.156 6.42519 16.0418C6.53123 15.9291 6.66499 15.875 6.79412 15.875H26.2059C26.335 15.875 26.4688 15.9291 26.5748 16.0418C26.6823 16.156 26.75 16.3201 26.75 16.5C26.75 16.6799 26.6823 16.844 26.5748 16.9582C26.4688 17.0709 26.335 17.125 26.2059 17.125ZM26.2059 25.375H6.79412C6.66498 25.375 6.53123 25.3209 6.42519 25.2083C6.3177 25.094 6.25 24.9299 6.25 24.75C6.25 24.5701 6.3177 24.406 6.42519 24.2917C6.53123 24.1791 6.66498 24.125 6.79412 24.125H26.2059C26.335 24.125 26.4688 24.1791 26.5748 24.2917C26.6823 24.406 26.75 24.5701 26.75 24.75C26.75 24.9299 26.6823 25.094 26.5748 25.2083C26.4688 25.3209 26.335 25.375 26.2059 25.375Z" fill="#111928" stroke="#111928" stroke-width="1.5"/>
</svg>
