<svg width="33" height="34" viewBox="0 0 33 34" fill="none" xmlns="http://www.w3.org/2000/svg">
<path d="M17.9308 16.4866L17.4005 17.0169L17.9308 17.5472L25.2032 24.8196C25.3147 24.9371 25.3764 25.0933 25.375 25.2554C25.3736 25.4193 25.3078 25.5761 25.1919 25.6919C25.0761 25.8078 24.9193 25.8736 24.7554 25.875C24.5933 25.8764 24.4371 25.8147 24.3196 25.7032L17.0472 18.4308L16.5169 17.9005L15.9866 18.4308L8.70869 25.7087L8.70861 25.7086L8.69955 25.718C8.6419 25.7777 8.57294 25.8253 8.49668 25.858C8.42043 25.8908 8.33841 25.908 8.25543 25.9088C8.17244 25.9095 8.09014 25.8937 8.01333 25.8623C7.93653 25.8308 7.86674 25.7844 7.80806 25.7257C7.74938 25.6671 7.70297 25.5973 7.67154 25.5205C7.64012 25.4436 7.6243 25.3613 7.62502 25.2784C7.62574 25.1954 7.64299 25.1134 7.67574 25.0371C7.7085 24.9609 7.75611 24.8919 7.81581 24.8342L7.81588 24.8343L7.8251 24.8251L15.103 17.5472L15.6333 17.0169L15.103 16.4866L7.83061 9.21419C7.71905 9.09674 7.65741 8.94048 7.65882 8.77836C7.66024 8.61449 7.72597 8.45773 7.84185 8.34185C7.95773 8.22597 8.11449 8.16024 8.27836 8.15882C8.44048 8.15741 8.59674 8.21905 8.71419 8.33061L15.9866 15.603L16.5169 16.1333L17.0472 15.603L24.3251 8.3251L24.3252 8.32518L24.3342 8.31581C24.3919 8.25611 24.4609 8.2085 24.5371 8.17574C24.6134 8.14299 24.6954 8.12574 24.7784 8.12502C24.8613 8.1243 24.9436 8.14012 25.0205 8.17154C25.0973 8.20297 25.1671 8.24938 25.2257 8.30806C25.2844 8.36674 25.3308 8.43653 25.3623 8.51333C25.3937 8.59014 25.4095 8.67244 25.4088 8.75543C25.408 8.83841 25.3908 8.92043 25.358 8.99668C25.3253 9.07294 25.2777 9.1419 25.218 9.19955L25.2179 9.19947L25.2087 9.20869L17.9308 16.4866Z" fill="white" stroke="white" stroke-width="1.5"/>
</svg>
