<svg width="20" height="20" viewBox="0 0 20 20" fill="none" xmlns="http://www.w3.org/2000/svg">
<path d="M2.83333 15.8333V16.3333H3.33333H16.6667H17.1667V15.8333V4.16667V3.66667H16.6667H3.33333H2.83333V4.16667V15.8333ZM13.1608 10.6539L13.1614 10.655L15.2812 13.988C15.2813 13.9881 15.2813 13.9882 15.2814 13.9882C15.3133 14.0386 15.3311 14.0966 15.333 14.1561C15.3349 14.2158 15.3207 14.2749 15.292 14.3272C15.2632 14.3795 15.2209 14.4231 15.1696 14.4535C15.1182 14.4839 15.0597 14.5 15 14.5C15 14.5 14.9999 14.5 14.9999 14.5L5 14.5L4.99751 14.5C4.94053 14.5003 4.88442 14.486 4.83455 14.4584C4.78468 14.4308 4.74272 14.3909 4.71266 14.3425C4.6826 14.2941 4.66546 14.2388 4.66287 14.1819C4.66027 14.1249 4.67232 14.0683 4.69784 14.0173L4.69804 14.0169L7.61464 8.18376C7.61466 8.18371 7.61469 8.18366 7.61471 8.18361C7.64161 8.12991 7.68252 8.08448 7.73312 8.05212C7.78376 8.01973 7.84222 8.00164 7.9023 7.99975L7.90231 7.9999L7.91444 7.99923C7.97178 7.99604 8.02885 8.00915 8.07905 8.03703C8.12925 8.06493 8.17053 8.10646 8.19812 8.15683L8.19796 8.15692L8.2048 8.16864L10.5148 12.1278L10.8774 12.7493L11.3334 12.1927L12.6214 10.6206C12.6549 10.5798 12.6976 10.5476 12.7459 10.5265C12.7943 10.5055 12.847 10.4962 12.8996 10.4994C12.9523 10.5027 13.0034 10.5184 13.0488 10.5453C13.0942 10.5721 13.1326 10.6094 13.1608 10.6539ZM3.33333 3H16.6667C16.9761 3 17.2728 3.12292 17.4916 3.34171C17.7104 3.5605 17.8333 3.85725 17.8333 4.16667V15.8333C17.8333 16.1428 17.7104 16.4395 17.4916 16.6583C17.2728 16.8771 16.9761 17 16.6667 17H3.33333C3.02391 17 2.72717 16.8771 2.50837 16.6583C2.28958 16.4395 2.16666 16.1428 2.16666 15.8333V4.16667C2.16666 3.85725 2.28958 3.5605 2.50837 3.34171C2.72717 3.12292 3.02391 3 3.33333 3ZM12.8333 7.08333C12.8333 7.49755 12.4975 7.83333 12.0833 7.83333C11.6691 7.83333 11.3333 7.49755 11.3333 7.08333C11.3333 6.66912 11.6691 6.33333 12.0833 6.33333C12.4975 6.33333 12.8333 6.66912 12.8333 7.08333Z" fill="#6B7280" stroke="#6B7280"/>
</svg>
