<svg width="129" height="24" viewBox="0 0 129 24" fill="none" xmlns="http://www.w3.org/2000/svg">
<path d="M12.0078 17.4189C12.0078 17.0381 11.9492 16.6963 11.832 16.3936C11.7246 16.0811 11.5195 15.7979 11.2168 15.5439C10.9141 15.2803 10.4893 15.0215 9.94238 14.7676C9.39551 14.5137 8.6875 14.25 7.81836 13.9766C6.85156 13.6641 5.93359 13.3125 5.06445 12.9219C4.20508 12.5312 3.44336 12.0771 2.7793 11.5596C2.125 11.0322 1.60742 10.4219 1.22656 9.72852C0.855469 9.03516 0.669922 8.22949 0.669922 7.31152C0.669922 6.42285 0.865234 5.61719 1.25586 4.89453C1.64648 4.16211 2.19336 3.53711 2.89648 3.01953C3.59961 2.49219 4.42969 2.08691 5.38672 1.80371C6.35352 1.52051 7.41309 1.37891 8.56543 1.37891C10.1377 1.37891 11.5098 1.66211 12.6816 2.22852C13.8535 2.79492 14.7617 3.57129 15.4062 4.55762C16.0605 5.54395 16.3877 6.67187 16.3877 7.94141H12.0225C12.0225 7.31641 11.8906 6.76953 11.627 6.30078C11.373 5.82227 10.9824 5.44629 10.4551 5.17285C9.9375 4.89941 9.2832 4.7627 8.49219 4.7627C7.73047 4.7627 7.0957 4.87988 6.58789 5.11426C6.08008 5.33887 5.69922 5.64648 5.44531 6.03711C5.19141 6.41797 5.06445 6.84766 5.06445 7.32617C5.06445 7.6875 5.15234 8.01465 5.32812 8.30762C5.51367 8.60059 5.78711 8.87402 6.14844 9.12793C6.50977 9.38184 6.9541 9.62109 7.48145 9.8457C8.00879 10.0703 8.61914 10.29 9.3125 10.5049C10.4746 10.8564 11.4951 11.252 12.374 11.6914C13.2627 12.1309 14.0049 12.624 14.6006 13.1709C15.1963 13.7178 15.6455 14.3379 15.9482 15.0312C16.251 15.7246 16.4023 16.5107 16.4023 17.3896C16.4023 18.3174 16.2217 19.1475 15.8604 19.8799C15.499 20.6123 14.9766 21.2324 14.293 21.7402C13.6094 22.248 12.7939 22.6338 11.8467 22.8975C10.8994 23.1611 9.83984 23.293 8.66797 23.293C7.61328 23.293 6.57324 23.1562 5.54785 22.8828C4.52246 22.5996 3.58984 22.1748 2.75 21.6084C1.91992 21.042 1.25586 20.3193 0.757812 19.4404C0.259766 18.5615 0.0107422 17.5215 0.0107422 16.3203H4.41992C4.41992 16.9844 4.52246 17.5459 4.72754 18.0049C4.93262 18.4639 5.2207 18.835 5.5918 19.1182C5.97266 19.4014 6.42188 19.6064 6.93945 19.7334C7.4668 19.8604 8.04297 19.9238 8.66797 19.9238C9.42969 19.9238 10.0547 19.8164 10.543 19.6016C11.041 19.3867 11.4072 19.0889 11.6416 18.708C11.8857 18.3271 12.0078 17.8975 12.0078 17.4189ZM23.4957 10.4316V23H19.2623V7.15039H23.232L23.4957 10.4316ZM22.9098 14.5186H21.7379C21.7379 13.415 21.8697 12.3994 22.1334 11.4717C22.4068 10.5342 22.8023 9.72363 23.3199 9.04004C23.8473 8.34668 24.4967 7.80957 25.2682 7.42871C26.0396 7.04785 26.9332 6.85742 27.9488 6.85742C28.652 6.85742 29.2965 6.96484 29.8824 7.17969C30.4684 7.38477 30.9713 7.71191 31.3912 8.16113C31.8209 8.60059 32.1529 9.17676 32.3873 9.88965C32.6217 10.5928 32.7389 11.4375 32.7389 12.4238V23H28.5201V12.8926C28.5201 12.1699 28.4225 11.6133 28.2271 11.2227C28.0318 10.832 27.7535 10.5586 27.3922 10.4023C27.0406 10.2461 26.6158 10.168 26.1178 10.168C25.5709 10.168 25.0924 10.2803 24.6822 10.5049C24.2818 10.7295 23.9498 11.042 23.6861 11.4424C23.4225 11.833 23.2271 12.292 23.1002 12.8193C22.9732 13.3467 22.9098 13.9131 22.9098 14.5186ZM32.3434 14.0352L30.8346 14.2256C30.8346 13.1904 30.9615 12.2285 31.2154 11.3398C31.4791 10.4512 31.8648 9.66992 32.3727 8.99609C32.8902 8.32227 33.5299 7.7998 34.2916 7.42871C35.0533 7.04785 35.9322 6.85742 36.9283 6.85742C37.69 6.85742 38.3834 6.96973 39.0084 7.19434C39.6334 7.40918 40.1656 7.75586 40.6051 8.23438C41.0543 8.70312 41.3961 9.31836 41.6305 10.0801C41.8746 10.8418 41.9967 11.7744 41.9967 12.8779V23H37.7633V12.8779C37.7633 12.1455 37.6656 11.5889 37.4703 11.208C37.2848 10.8174 37.0113 10.5488 36.65 10.4023C36.2984 10.2461 35.8785 10.168 35.3902 10.168C34.8824 10.168 34.4381 10.2705 34.0572 10.4756C33.6764 10.6709 33.359 10.9443 33.1051 11.2959C32.8512 11.6475 32.6607 12.0576 32.5338 12.5264C32.4068 12.9854 32.3434 13.4883 32.3434 14.0352ZM53.968 19.4258V12.3652C53.968 11.8574 53.885 11.4229 53.7189 11.0615C53.5529 10.6904 53.2941 10.4023 52.9426 10.1973C52.6008 9.99219 52.1564 9.88965 51.6096 9.88965C51.1408 9.88965 50.7355 9.97266 50.3937 10.1387C50.052 10.2949 49.7883 10.5244 49.6027 10.8271C49.4172 11.1201 49.3244 11.4668 49.3244 11.8672H45.1057C45.1057 11.1934 45.2619 10.5537 45.5744 9.94824C45.8869 9.34277 46.341 8.81055 46.9367 8.35156C47.5324 7.88281 48.2404 7.5166 49.0607 7.25293C49.8908 6.98926 50.8186 6.85742 51.8439 6.85742C53.0744 6.85742 54.1682 7.0625 55.1252 7.47266C56.0822 7.88281 56.8342 8.49805 57.3811 9.31836C57.9377 10.1387 58.216 11.1641 58.216 12.3945V19.1768C58.216 20.0459 58.2697 20.7588 58.3771 21.3154C58.4846 21.8623 58.6408 22.3408 58.8459 22.751V23H54.5832C54.3781 22.5703 54.2219 22.0332 54.1145 21.3887C54.0168 20.7344 53.968 20.0801 53.968 19.4258ZM54.5246 13.3467L54.5539 15.7344H52.1955C51.6389 15.7344 51.1555 15.7979 50.7453 15.9248C50.3352 16.0518 49.9982 16.2324 49.7346 16.4668C49.4709 16.6914 49.2756 16.9551 49.1486 17.2578C49.0314 17.5605 48.9729 17.8926 48.9729 18.2539C48.9729 18.6152 49.0559 18.9424 49.2219 19.2354C49.3879 19.5186 49.6271 19.7432 49.9396 19.9092C50.2521 20.0654 50.6184 20.1436 51.0383 20.1436C51.673 20.1436 52.2248 20.0166 52.6936 19.7627C53.1623 19.5088 53.5236 19.1963 53.7775 18.8252C54.0412 18.4541 54.1779 18.1025 54.1877 17.7705L55.301 19.5576C55.1447 19.958 54.9299 20.373 54.6564 20.8027C54.3928 21.2324 54.0559 21.6377 53.6457 22.0186C53.2355 22.3896 52.7424 22.6973 52.1662 22.9414C51.59 23.1758 50.9064 23.293 50.1154 23.293C49.1096 23.293 48.1965 23.0928 47.3762 22.6924C46.5656 22.2822 45.9211 21.7207 45.4426 21.0078C44.9738 20.2852 44.7395 19.4648 44.7395 18.5469C44.7395 17.7168 44.8957 16.9795 45.2082 16.335C45.5207 15.6904 45.9797 15.1484 46.5852 14.709C47.2004 14.2598 47.967 13.9229 48.885 13.6982C49.8029 13.4639 50.8674 13.3467 52.0783 13.3467H54.5246ZM65.8367 10.6074V23H61.618V7.15039H65.5877L65.8367 10.6074ZM70.6121 7.04785L70.5389 10.959C70.3338 10.9297 70.0848 10.9053 69.7918 10.8857C69.5086 10.8564 69.2498 10.8418 69.0154 10.8418C68.4197 10.8418 67.9021 10.9199 67.4627 11.0762C67.033 11.2227 66.6717 11.4424 66.3787 11.7354C66.0955 12.0283 65.8807 12.3848 65.7342 12.8047C65.5975 13.2246 65.5193 13.7031 65.4998 14.2402L64.6502 13.9766C64.6502 12.9512 64.7527 12.0088 64.9578 11.1494C65.1629 10.2803 65.4607 9.52344 65.8514 8.87891C66.2518 8.23438 66.74 7.73633 67.3162 7.38477C67.8924 7.0332 68.5516 6.85742 69.2938 6.85742C69.5281 6.85742 69.7674 6.87695 70.0115 6.91602C70.2557 6.94531 70.4559 6.98926 70.6121 7.04785ZM81.2504 7.15039V10.1387H72.0219V7.15039H81.2504ZM74.307 3.23926H78.5258V18.2246C78.5258 18.6836 78.5844 19.0352 78.7016 19.2793C78.8285 19.5234 79.0141 19.6943 79.2582 19.792C79.5023 19.8799 79.81 19.9238 80.1811 19.9238C80.4447 19.9238 80.6791 19.9141 80.8842 19.8945C81.099 19.8652 81.2797 19.8359 81.4262 19.8066L81.4408 22.9121C81.0795 23.0293 80.6889 23.1221 80.2689 23.1904C79.849 23.2588 79.3852 23.293 78.8773 23.293C77.9496 23.293 77.1391 23.1416 76.4457 22.8389C75.7621 22.5264 75.2348 22.0283 74.8637 21.3447C74.4926 20.6611 74.307 19.7627 74.307 18.6494V3.23926ZM96.9863 21.916V23H85.6777V21.916H96.9863ZM86.2051 1.67188V23H85.0039V1.67188H86.2051ZM110.188 20.085V11.8965C110.188 11.0664 110.012 10.3535 109.661 9.75781C109.309 9.16211 108.796 8.70801 108.123 8.39551C107.449 8.07324 106.624 7.91211 105.647 7.91211C104.739 7.91211 103.923 8.07324 103.201 8.39551C102.488 8.70801 101.926 9.1377 101.516 9.68457C101.106 10.2314 100.901 10.8418 100.901 11.5156L99.7291 11.501C99.7291 10.8955 99.8707 10.3145 100.154 9.75781C100.447 9.20117 100.857 8.70801 101.384 8.27832C101.921 7.83887 102.551 7.49219 103.274 7.23828C104.006 6.98438 104.807 6.85742 105.676 6.85742C106.79 6.85742 107.771 7.04785 108.621 7.42871C109.48 7.7998 110.149 8.36133 110.628 9.11328C111.106 9.86523 111.345 10.8027 111.345 11.9258V19.748C111.345 20.3145 111.384 20.8857 111.463 21.4619C111.541 22.0381 111.648 22.502 111.785 22.8535V23H110.51C110.403 22.6289 110.32 22.1748 110.261 21.6377C110.213 21.1006 110.188 20.583 110.188 20.085ZM110.569 14.0059L110.598 15.0166H106.731C105.754 15.0166 104.88 15.1094 104.109 15.2949C103.338 15.4805 102.683 15.7441 102.146 16.0859C101.609 16.4277 101.199 16.833 100.916 17.3018C100.632 17.7705 100.491 18.2979 100.491 18.8838C100.491 19.4893 100.652 20.0459 100.974 20.5537C101.296 21.0615 101.751 21.4668 102.337 21.7695C102.922 22.0625 103.601 22.209 104.373 22.209C105.427 22.209 106.36 22.0283 107.171 21.667C107.991 21.2959 108.679 20.7979 109.236 20.1729C109.793 19.5381 110.198 18.8057 110.452 17.9756L110.964 18.8252C110.798 19.3428 110.54 19.8652 110.188 20.3926C109.837 20.9199 109.382 21.4033 108.826 21.8428C108.269 22.2725 107.615 22.624 106.863 22.8975C106.111 23.1611 105.256 23.293 104.299 23.293C103.294 23.293 102.415 23.1074 101.663 22.7363C100.921 22.3555 100.344 21.8379 99.9342 21.1836C99.524 20.5195 99.3189 19.7627 99.3189 18.9131C99.3189 18.1807 99.485 17.5117 99.817 16.9062C100.149 16.3008 100.628 15.7832 101.253 15.3535C101.887 14.9141 102.654 14.582 103.552 14.3574C104.461 14.123 105.481 14.0059 106.614 14.0059H110.569ZM116.417 0.5H117.589V19.9238L117.545 23H116.417V0.5ZM128.81 14.9141V15.2217C128.81 16.4229 128.673 17.5166 128.4 18.5029C128.136 19.4893 127.745 20.3389 127.228 21.0518C126.72 21.7646 126.095 22.3164 125.353 22.707C124.611 23.0977 123.766 23.293 122.819 23.293C121.91 23.293 121.095 23.1562 120.372 22.8828C119.659 22.6094 119.044 22.2334 118.527 21.7549C118.009 21.2666 117.589 20.7051 117.267 20.0703C116.954 19.4258 116.735 18.7373 116.608 18.0049V12.541C116.774 11.7109 117.023 10.9541 117.355 10.2705C117.687 9.57715 118.107 8.97656 118.614 8.46875C119.122 7.95117 119.723 7.55566 120.416 7.28223C121.119 6.99902 121.91 6.85742 122.789 6.85742C123.746 6.85742 124.596 7.04785 125.338 7.42871C126.09 7.7998 126.72 8.33691 127.228 9.04004C127.745 9.7334 128.136 10.5781 128.4 11.5742C128.673 12.5605 128.81 13.6738 128.81 14.9141ZM127.623 15.2217V14.9141C127.623 13.918 127.526 12.9951 127.33 12.1455C127.135 11.2959 126.832 10.5586 126.422 9.93359C126.022 9.30859 125.509 8.82031 124.884 8.46875C124.259 8.11719 123.522 7.94141 122.672 7.94141C121.735 7.94141 120.944 8.09766 120.299 8.41016C119.664 8.71289 119.142 9.1084 118.732 9.59668C118.331 10.085 118.014 10.6123 117.779 11.1787C117.555 11.7354 117.389 12.2627 117.281 12.7607V17.9316C117.457 18.7031 117.765 19.416 118.204 20.0703C118.654 20.7148 119.249 21.2324 119.991 21.623C120.743 22.0137 121.647 22.209 122.701 22.209C123.541 22.209 124.269 22.0332 124.884 21.6816C125.509 21.3301 126.022 20.8418 126.422 20.2168C126.822 19.5918 127.12 18.8545 127.316 18.0049C127.521 17.1553 127.623 16.2275 127.623 15.2217Z" fill="#111928"/>
</svg>
